<svg xmlns="http://www.w3.org/2000/svg" viewBox="0 0 500 900"><defs><linearGradient id="r" x2="1" y2="1"><stop stop-color="#5d2038"/><stop offset="1" stop-color="#24172f"/></linearGradient></defs><path fill="url(#r)" d="M70 900c15-238 61-373 180-373s165 135 180 373z"/><path fill="#edc6ae" d="M190 435h120v160H190z"/><ellipse cx="250" cy="322" rx="115" ry="150" fill="#f2cfb8"/><path fill="#17131b" d="M138 334c-9-132 29-227 112-227 94 0 130 93 112 230l-32-125-85-46-78 52z"/><ellipse cx="250" cy="120" rx="78" ry="54" fill="#17131b"/><path fill="#caa451" d="M171 168l79-70 79 70-20 18-59-43-59 43z"/><path fill="#17131b" d="M165 279c15 115 14 189-42 257 31-9 70-39 90-90zM335 279c-15 115-14 189 42 257-31-9-70-39-90-90z"/><circle cx="211" cy="322" r="8" fill="#302228"/><circle cx="289" cy="322" r="8" fill="#302228"/><path d="M218 391q32 17 64 0" fill="none" stroke="#9e5761" stroke-width="7" stroke-linecap="round"/><path d="M113 755q137-124 274 0" fill="none" stroke="#caa451" stroke-width="18"/><path d="M250 545v355" stroke="#caa451" stroke-width="10"/></svg>
